<?xml version="1.0" encoding="UTF-8" standalone="no"?>
<!-- Created with Inkscape (http://www.inkscape.org/) -->

<svg
   width="300"
   height="300"
   viewBox="0 0 300 300"
   version="1.1"
   id="svg1"
   inkscape:version="1.3.2 (091e20ef0f, 2023-11-25)"
   sodipodi:docname="shelfworm.svg"
   xmlns:inkscape="http://www.inkscape.org/namespaces/inkscape"
   xmlns:sodipodi="http://sodipodi.sourceforge.net/DTD/sodipodi-0.dtd"
   xmlns="http://www.w3.org/2000/svg"
   xmlns:svg="http://www.w3.org/2000/svg">
  <sodipodi:namedview
     id="namedview1"
     pagecolor="#505050"
     bordercolor="#ffffff"
     borderopacity="1"
     inkscape:showpageshadow="0"
     inkscape:pageopacity="0"
     inkscape:pagecheckerboard="1"
     inkscape:deskcolor="#505050"
     inkscape:document-units="px"
     inkscape:zoom="1.5103688"
     inkscape:cx="-76.802436"
     inkscape:cy="-18.207474"
     inkscape:window-width="1920"
     inkscape:window-height="1011"
     inkscape:window-x="0"
     inkscape:window-y="32"
     inkscape:window-maximized="1"
     inkscape:current-layer="layer5" />
  <defs
     id="defs1">
    <inkscape:path-effect
       effect="spiro"
       id="path-effect6"
       is_visible="true"
       lpeversion="1" />
    <rect
       x="55.00482"
       y="58.274712"
       width="244.99518"
       height="117.40237"
       id="rect3" />
  </defs>
  <g
     inkscape:label="Layer 1"
     inkscape:groupmode="layer"
     id="layer1">
    <rect
       style="fill:#ffffff"
       id="rect1"
       width="300"
       height="300"
       x="0"
       y="0" />
  </g>
  <g
     inkscape:groupmode="layer"
     id="layer3"
     inkscape:label="Layer 2">
    <rect
       style="fill:#000000;stroke:#000000;stroke-width:0.996016;stroke-opacity:1"
       id="rect2"
       width="250"
       height="250"
       x="25.498011"
       y="25.498011"
       ry="20" />
    <rect
       style="fill:#ffffff;stroke:#000000;stroke-width:0.870973;stroke-opacity:1"
       id="rect2-2"
       width="219.12903"
       height="219.12903"
       x="40.435486"
       y="40.435486"
       ry="13.944574" />
    <text
       xml:space="preserve"
       id="text3"
       style="font-style:normal;font-variant:normal;font-weight:normal;font-stretch:normal;font-size:85.3333px;font-family:Poppins;-inkscape-font-specification:Poppins;text-align:center;white-space:pre;shape-inside:url(#rect3);fill:#000000;stroke:#000000;stroke-width:2;stroke-dasharray:none;stroke-opacity:1"
       transform="matrix(0.90059735,0,0,0.88257414,-10.933686,12.349361)"><tspan
         x="74.163292"
         y="132.94203"
         id="tspan1">Shelf</tspan></text>
    <text
       xml:space="preserve"
       style="font-style:normal;font-variant:normal;font-weight:normal;font-stretch:normal;font-size:74.7255px;font-family:Poppins;-inkscape-font-specification:Poppins;text-align:center;text-anchor:middle;fill:#000000;stroke:#000000;stroke-width:1.75139;stroke-dasharray:none;stroke-opacity:1"
       x="156.64569"
       y="220.2836"
       id="text4"
       transform="scale(0.96889917,1.0320991)"><tspan
         sodipodi:role="line"
         id="tspan4"
         x="156.64569"
         y="220.2836"
         style="stroke-width:1.75139">Worm</tspan></text>
    <rect
       style="fill:#000000;stroke:#000000;stroke-width:2;stroke-dasharray:none;stroke-opacity:1"
       id="rect4"
       width="220"
       height="20"
       x="41.27317"
       y="141.42094" />
    <path
       style="fill:#000000;stroke:#ffffff;stroke-width:0;stroke-dasharray:none;stroke-opacity:1"
       d="m 86.583609,87.500488 c 0.06898,-0.502664 0.593667,-0.904909 0.783372,-1.288831 0.04056,-0.08208 0.03215,-0.182775 0.07271,-0.264852 0.12473,-0.252425 0.882692,-1.139633 1.07799,-1.317494 0.167694,-0.152721 0.393606,-0.22629 0.581636,-0.353135 0.140047,-0.09448 0.219117,-0.265462 0.36352,-0.353136 0.07409,-0.04499 0.210809,0.07134 0.260046,0 0.03299,-0.0478 0.01872,-0.127866 0.06634,-0.161119 0.08306,-0.058 0.19691,-0.05027 0.290816,-0.08828 0.362007,-0.146525 0.778447,-0.340199 1.090568,-0.529703 0.146947,-0.08922 0.45767,0.06477 0.617692,0 0.03534,-0.0143 0.03737,-0.07398 0.0727,-0.08828 0.109128,-0.04417 0.390084,0 0.508932,0 0.149603,0 1.27883,0.02184 1.30652,0.0681 0.01356,0.02266 -0.01746,0.05942 0,0.07923 0.02488,0.02825 0.09398,-0.03252 0.112947,0 0.03383,0.05797 0.02386,0.08989 0.06782,0.127272 0.0017,0.0015 0.1251,-0.0015 0.126245,0 0.04759,0.06148 0.02312,0.10799 0.0727,0.168203 0.04945,0.06005 0.155155,0.03979 0.216086,0.08815 0.212817,0.168918 0.217766,0.353586 0.393153,0.494819 0.05215,0.042 0.304038,0.03955 0.34068,0.08469 0.08763,0.107935 -0.100437,0.08468 0.06978,0.08468"
       id="path4" />
    <g
       inkscape:groupmode="layer"
       id="layer5"
       inkscape:label="Layer 3">
      <path
         style="fill:#000000;stroke:#ffffff;stroke-width:0;stroke-linecap:round;stroke-linejoin:miter;stroke-dasharray:none;stroke-opacity:1;paint-order:normal"
         d="m 68.526947,114.79779 c -0.06751,-0.4055 -0.184414,-0.80275 -0.347303,-1.18018 -0.407609,-0.94447 -1.11143,-1.76124 -1.994033,-2.28962 -0.882603,-0.52837 -1.940613,-0.76309 -2.962013,-0.64098 -1.021399,0.12211 -1.998964,0.60327 -2.706829,1.34966 -0.707865,0.74639 -1.137784,1.7542 -1.170227,2.78236 -0.0027,0.0871 -0.0027,0.17431 0,0.26142"
         id="path6"
         inkscape:path-effect="#path-effect6"
         inkscape:original-d="m 68.526947,114.79779 c -0.115768,-0.39339 -0.231536,-0.78679 -0.347303,-1.18018 -0.115768,-0.39339 -5.888735,0.80095 -8.833102,1.20142 -2.944368,0.40048 0,0.17428 0,0.26142" />
    </g>
  </g>
</svg>
